<?xml version="1.0" encoding="UTF-8"?>
<svg xmlns="http://www.w3.org/2000/svg" xmlns:xlink="http://www.w3.org/1999/xlink" width="40px" height="40px" viewBox="0 0 40 40" version="1.1">
<g id="surface1">
<path style=" stroke:none;fill-rule:nonzero;fill:rgb(54.509804%,76.470588%,29.019608%);fill-opacity:1;" d="M 32.5 35 L 7.5 35 C 6.121094 35 5 33.878906 5 32.5 L 5 7.5 C 5 6.121094 6.121094 5 7.5 5 L 32.5 5 C 33.878906 5 35 6.121094 35 7.5 L 35 32.5 C 35 33.878906 33.878906 35 32.5 35 Z M 32.5 35 "/>
<path style=" stroke:none;fill-rule:nonzero;fill:rgb(100%,100%,100%);fill-opacity:1;" d="M 10.832031 13.332031 L 15 9.167969 L 28.75 9.167969 C 28.917969 9.167969 29.070312 9.269531 29.136719 9.421875 C 29.199219 9.578125 29.164062 9.757812 29.042969 9.878906 L 25.589844 13.332031 Z M 10.832031 13.332031 "/>
<path style=" stroke:none;fill-rule:nonzero;fill:rgb(100%,100%,100%);fill-opacity:1;" d="M 10.832031 26.667969 L 15 30.832031 L 28.75 30.832031 C 28.917969 30.832031 29.070312 30.730469 29.136719 30.578125 C 29.199219 30.421875 29.164062 30.242188 29.042969 30.121094 L 25.589844 26.667969 Z M 10.832031 26.667969 "/>
<path style=" stroke:none;fill-rule:nonzero;fill:rgb(86.27451%,92.941176%,78.431373%);fill-opacity:1;" d="M 10.832031 13.332031 L 15 13.332031 L 15 26.667969 L 10.832031 26.667969 Z M 10.832031 13.332031 "/>
</g>
</svg>